# xmcd
#
# Track frame offsets:
#	150
#	16590
#	29616
#	48016
#	63884
#	85467
#	109741
#	131979
#	143997
#	158937
#	174349
#	188629
#	205524
#	220784
#
# Disc length: 3627 seconds
#
# Revision: 1
# Processed by: cddbd v1.5.2PL0 Copyright (c) Steve Scherf et al.
# Submitted via: audiograbber 1.83.01
#
DISCID=b90e290e
DTITLE=Red Wine - Pickin' Friends
DYEAR=2014
DGENRE=Bluegrass
TTITLE0=Tell all my pickin' friends good-bye
TTITLE1=Love you don't know
TTITLE2=Someone else's dream
TTITLE3=Feels like love
TTITLE4=Time to learn
TTITLE5=Beaver valley
TTITLE6=Bottomlands
TTITLE7=Mountain Pass
TTITLE8=Time of no reply
TTITLE9=Stealin' peaches
TTITLE10=Where the sidewalk ends
TTITLE11=Cold big city
TTITLE12=Buffalo Nickel
TTITLE13=Saved
EXTD=
EXTT0=
EXTT1=
EXTT2=
EXTT3=
EXTT4=
EXTT5=
EXTT6=
EXTT7=
EXTT8=
EXTT9=
EXTT10=
EXTT11=
EXTT12=
EXTT13=
PLAYORDER=
